<mxfile host="app.diagrams.net" modified="2020-04-19T11:31:03.540Z" agent="5.0 (Macintosh; Intel Mac OS X 10_15_3) AppleWebKit/537.36 (KHTML, like Gecko) Chrome/80.0.3987.163 Safari/537.36" etag="yIDtwALw913lhRHyAgAY" version="12.9.14" type="github">
  <diagram id="auQ-xZPgcsfXKyRMp1jr" name="第 1 页">
    <mxGraphModel dx="744" dy="591" grid="1" gridSize="10" guides="1" tooltips="1" connect="1" arrows="1" fold="1" page="1" pageScale="1" pageWidth="827" pageHeight="1169" math="0" shadow="0">
      <root>
        <mxCell id="0" />
        <mxCell id="1" parent="0" />
        <mxCell id="wsR6Gxox6wflihYimQEe-2" value="Reconnect" style="rounded=0;whiteSpace=wrap;html=1;" vertex="1" parent="1">
          <mxGeometry x="320" y="270" width="110" height="40" as="geometry" />
        </mxCell>
        <mxCell id="wsR6Gxox6wflihYimQEe-3" value="Mechanism" style="text;html=1;strokeColor=none;fillColor=none;align=center;verticalAlign=middle;whiteSpace=wrap;rounded=0;" vertex="1" parent="1">
          <mxGeometry x="414" y="220" width="40" height="20" as="geometry" />
        </mxCell>
        <mxCell id="wsR6Gxox6wflihYimQEe-5" value="Retry" style="rounded=0;whiteSpace=wrap;html=1;" vertex="1" parent="1">
          <mxGeometry x="450" y="270" width="110" height="40" as="geometry" />
        </mxCell>
        <mxCell id="wsR6Gxox6wflihYimQEe-6" value="Ratelimit" style="rounded=0;whiteSpace=wrap;html=1;" vertex="1" parent="1">
          <mxGeometry x="320" y="320" width="110" height="40" as="geometry" />
        </mxCell>
        <mxCell id="wsR6Gxox6wflihYimQEe-8" value="Codec(Protocol)" style="rounded=0;whiteSpace=wrap;html=1;" vertex="1" parent="1">
          <mxGeometry x="450" y="320" width="110" height="40" as="geometry" />
        </mxCell>
        <mxCell id="wsR6Gxox6wflihYimQEe-9" value="Errors" style="rounded=0;whiteSpace=wrap;html=1;" vertex="1" parent="1">
          <mxGeometry x="320" y="370" width="110" height="40" as="geometry" />
        </mxCell>
        <mxCell id="wsR6Gxox6wflihYimQEe-10" value="Auth" style="rounded=0;whiteSpace=wrap;html=1;" vertex="1" parent="1">
          <mxGeometry x="450" y="370" width="110" height="40" as="geometry" />
        </mxCell>
        <mxCell id="wsR6Gxox6wflihYimQEe-12" value="Timeout" style="rounded=0;whiteSpace=wrap;html=1;" vertex="1" parent="1">
          <mxGeometry x="580" y="270" width="110" height="40" as="geometry" />
        </mxCell>
        <mxCell id="wsR6Gxox6wflihYimQEe-13" value="cluster" style="endArrow=none;html=1;" edge="1" parent="1">
          <mxGeometry width="50" height="50" relative="1" as="geometry">
            <mxPoint x="300" y="478" as="sourcePoint" />
            <mxPoint x="700" y="478" as="targetPoint" />
          </mxGeometry>
        </mxCell>
        <mxCell id="wsR6Gxox6wflihYimQEe-14" value="Master" style="rounded=0;whiteSpace=wrap;html=1;" vertex="1" parent="1">
          <mxGeometry x="320" y="508" width="110" height="40" as="geometry" />
        </mxCell>
        <mxCell id="wsR6Gxox6wflihYimQEe-15" value="Backup" style="rounded=0;whiteSpace=wrap;html=1;" vertex="1" parent="1">
          <mxGeometry x="450" y="508" width="110" height="40" as="geometry" />
        </mxCell>
        <mxCell id="wsR6Gxox6wflihYimQEe-16" value="Log" style="rounded=0;whiteSpace=wrap;html=1;" vertex="1" parent="1">
          <mxGeometry x="580" y="320" width="110" height="40" as="geometry" />
        </mxCell>
        <mxCell id="wsR6Gxox6wflihYimQEe-17" value="Persistence" style="rounded=0;whiteSpace=wrap;html=1;" vertex="1" parent="1">
          <mxGeometry x="580" y="370" width="110" height="40" as="geometry" />
        </mxCell>
        <mxCell id="wsR6Gxox6wflihYimQEe-19" value="StreamProcess" style="rounded=0;whiteSpace=wrap;html=1;" vertex="1" parent="1">
          <mxGeometry x="320" y="420" width="110" height="40" as="geometry" />
        </mxCell>
        <mxCell id="wsR6Gxox6wflihYimQEe-20" value="重复推送资源消耗,&lt;br&gt;&amp;nbsp;保存消息资源消耗" style="shape=callout;whiteSpace=wrap;html=1;perimeter=calloutPerimeter;" vertex="1" parent="1">
          <mxGeometry x="550" y="160" width="120" height="80" as="geometry" />
        </mxCell>
      </root>
    </mxGraphModel>
  </diagram>
</mxfile>
